<?xml version="1.0" encoding="utf-8"?>
<!-- Generator: Adobe Illustrator 21.1.0, SVG Export Plug-In . SVG Version: 6.00 Build 0)  -->
<svg version="1.1" id="Layer_1" xmlns="http://www.w3.org/2000/svg" xmlns:xlink="http://www.w3.org/1999/xlink" x="0px" y="0px"
	 viewBox="0 0 621 191" style="enable-background:new 0 0 621 191;" xml:space="preserve">
<style type="text/css">
	.st0{fill:#FFFFFF;}
</style>
<g>
	<path class="st0" d="M170.1,126.2l12.1-11.6c6.1,6.1,14.3,9,21.4,9c9.3,0,14.2-4.6,14.2-9c0-2.9-2.6-3.8-11.8-6.1
		c-14.4-3.6-24.5-6.9-24.5-19.7c0-15.2,13.3-26.8,33.2-26.8c10.7,0,21.2,3.7,28.2,10.6L231.6,85c-5.9-5.3-13.4-7.5-18.7-7.5
		c-8,0-12.6,4.6-12.6,8.9c0,3.1,3,4.1,12,6.3c16.8,3.9,24.3,8.2,24.3,19.5c0,16.2-15,26.9-34.4,26.9
		C189.6,139.1,177.5,134.1,170.1,126.2z"/>
	<path class="st0" d="M302,97.7c0,4.1-0.9,6.9-7.8,40.1h-17.6c6.7-31.8,7.1-33.4,7.1-35.4c0-4.2-2.5-6.7-6.6-6.7
		c-6,0-11.4,4.4-12.9,9.5l-6.7,32.5h-18.3L254.9,62h18.3L268,86.9c4.1-4.1,10.1-6.5,16.4-6.5C295.3,80.4,302,87.6,302,97.7z"/>
	<path class="st0" d="M304.4,114.1c0-18.4,16.5-33.6,36.6-33.6c15.5,0,26.6,10.4,26.6,24.9c0,18.4-16.5,33.7-36.7,33.7
		C315.5,139.1,304.4,128.7,304.4,114.1z M350.1,105.8c0-5.7-4.3-10.1-10.1-10.1c-10,0-18.1,8.1-18.1,17.9c0,5.9,4.2,10.2,10.1,10.2
		C342,123.8,350.1,115.7,350.1,105.8z"/>
	<path class="st0" d="M434.3,103.2c0,18.8-13.4,35.9-31.5,35.9c-7.8,0-13.9-3.7-17.4-9.8l-5.6,27.1h-18.3L377,81.7h18.3l-1.4,6.6
		c5.2-4.9,11.7-7.9,19-7.9C425.8,80.4,434.3,89.9,434.3,103.2z M416.7,105.3c0-5.6-4-9.5-10.1-9.5c-9.7,0-17.7,9.3-17.7,18.8
		c0,5.5,3.9,9.3,9.7,9.3C408.3,123.8,416.7,114.8,416.7,105.3z"/>
</g>
<g>
	<path class="st0" d="M440.8,65h19.3l1.5,45.6L486.5,65H506l5.5,45.6L532.3,65h19.9l-36.3,73h-18.3l-6.4-46.2L465.1,138h-18.4
		L440.8,65z"/>
	<path class="st0" d="M553.7,65H587c14,0,23.4,8.5,23.4,20.9c0,16.8-14.6,29.2-32.7,29.2h-16.1l-4.9,22.8h-18.2L553.7,65z
		 M578.6,98.6c6.8,0,13.3-5.6,13.3-11.3c0-3.5-3.3-5.7-8.6-5.7h-14.9l-3.5,17H578.6z"/>
</g>
<g>
</g>
<path class="st0" d="M119.9,56.4H23.2C12.7,57.3,11.2,64.8,11,67.9v98.3h121V66.5C131.4,63,129,57.2,119.9,56.4z M89.6,119.9
	l-5,11.2l0,0c0,0-1.8,3.7-2.5,4.6c-2.9,3.7-7.3,5.9-12.1,5.9l-12.3,0v0H28.8h-2.5c0,0-0.8-0.1-0.3-1.2l5.6-12.6
	c1.9-4.3,5.6-7.4,10.1-8.6c0.1,0,0.2,0,0.3-0.1c0.6-0.2,1.3-0.3,1.9-0.3c0.5,0,0.9-0.1,1.4-0.1c0.1,0,0.2,0,0.3,0l0.2,0h1.1h11h0.7
	h6.9h7.3h3.6h1.7h8.7h2.5C89.3,118.7,90,118.9,89.6,119.9z M114.3,82.2l-5,11.2l0,0c0,0-1.8,3.7-2.5,4.6c-2.9,3.7-7.3,5.9-12.1,5.9
	l-12.3,0v0H53.5H51c0,0-0.8-0.1-0.3-1.2l5.6-12.6c1.9-4.3,5.6-7.4,10.1-8.6c0.1,0,0.2,0,0.3-0.1c0.6-0.2,1.3-0.3,1.9-0.3
	c0.5,0,0.9-0.1,1.4-0.1c0.1,0,0.2,0,0.3,0l0.2,0h1.1h11h0.7h6.9h7.3h3.6h1.7h8.7h2.5C113.9,81.1,114.7,81.2,114.3,82.2z"/>
<path class="st0" d="M107.2,42c-2.8-8.6-7.9-15.8-14.6-20.6c-6.2-4.5-13.6-6.9-21.3-6.9c-7.7,0-15.1,2.4-21.3,6.9
	c-6.7,4.9-11.7,12-14.6,20.6l-0.8,2.4h5.7h3.3h4.3l0.4-1c4-10.2,12.7-16.5,22.9-16.5s19,6.3,22.9,16.5l0.4,1H99h3.3h5.7L107.2,42z"
	/>
</svg>
