<?xml version="1.0" encoding="utf-8"?>
<!-- Generator: Adobe Illustrator 21.1.0, SVG Export Plug-In . SVG Version: 6.00 Build 0)  -->
<svg version="1.1" id="Layer_1" xmlns="http://www.w3.org/2000/svg" xmlns:xlink="http://www.w3.org/1999/xlink" x="0px" y="0px"
	 viewBox="0 0 975 191" style="enable-background:new 0 0 975 191;" xml:space="preserve">
<style type="text/css">
	.st0{fill:#415AFF;}
	.st1{fill:#FFFFFF;}
	.st2{fill:#69F7F3;}
	.st3{fill:#259E98;}
	.st4{font-family:'Metropolis-ExtraBold';}
	.st5{font-size:65.8991px;}
</style>
<path d="M174.1,134.1l12.9-12.3c6.5,6.5,15.2,9.6,22.7,9.6c9.9,0,15.1-4.9,15.1-9.6c0-3.1-2.8-4-12.5-6.5c-15.3-3.8-26-7.3-26-20.9
	c0-16.2,14.1-28.5,35.3-28.5c11.4,0,22.5,3.9,30,11.3l-12,13.2c-6.3-5.6-14.2-8-19.9-8c-8.5,0-13.4,4.9-13.4,9.5
	c0,3.3,3.2,4.4,12.8,6.7c17.9,4.1,25.8,8.7,25.8,20.7c0,17.2-15.9,28.6-36.6,28.6C194.8,147.8,182,142.5,174.1,134.1L174.1,134.1z
	 M314.3,103.8c0,4.4-1,7.3-8.3,42.6h-18.7c7.1-33.8,7.5-35.5,7.5-37.6c0-4.5-2.7-7.1-7-7.1c-6.4,0-12.1,4.7-13.7,10.1l-7.1,34.5
	h-19.5l16.7-80.5h19.5l-5.5,26.5c4.4-4.4,10.7-6.9,17.4-6.9C307.2,85.4,314.3,93,314.3,103.8z M316.9,121.2
	c0-19.6,17.5-35.7,38.9-35.7c16.5,0,28.3,11.1,28.3,26.5c0,19.6-17.5,35.8-39,35.8C328.7,147.8,316.9,136.7,316.9,121.2z
	 M365.5,112.4c0-6.1-4.6-10.7-10.7-10.7c-10.6,0-19.2,8.6-19.2,19c0,6.3,4.5,10.8,10.7,10.8C356.8,131.5,365.5,122.9,365.5,112.4z
	 M455,109.6c0,20-14.2,38.2-33.5,38.2c-8.3,0-14.8-3.9-18.5-10.4l-6,28.8h-19.5L394,86.8h19.5l-1.5,7c5.5-5.2,12.4-8.4,20.2-8.4
	C445.9,85.4,455,95.5,455,109.6z M436.2,111.8c0-6-4.3-10.1-10.7-10.1c-10.3,0-18.8,9.9-18.8,20c0,5.8,4.1,9.9,10.3,9.9
	C427.3,131.5,436.2,121.9,436.2,111.8z M461.9,67.4h20.9l1.6,49.4l27-49.4h21.3l6,49.4l22.6-49.4h21.6l-39.4,79.2h-19.9l-6.9-50.2
	l-28.4,50.2h-20L461.9,67.4z M584.4,67.4h36.2c15.2,0,25.4,9.2,25.4,22.7c0,18.2-15.8,31.7-35.5,31.7H593l-5.3,24.8h-19.7
	L584.4,67.4z M611.5,103.8c7.3,0,14.5-6.1,14.5-12.2c0-3.8-3.6-6.3-9.4-6.3h-16.2l-3.8,18.5H611.5z"/>
<path class="st0" d="M126.8,58.5H24c-11.2,1-12.8,8.9-13,12.2v104.5h128.6v-106C139,65.5,136.4,59.3,126.8,58.5z"/>
<g>
	<path class="st1" d="M95.2,124.7H48.5c-0.5,0-1.1,0.1-1.5,0.1c-0.6,0.1-1.4,0.2-2,0.3c-0.1,0-0.2,0.1-0.3,0.1
		c-4.7,1.3-8.6,4.6-10.7,9.1l-6,13.4c-0.4,1.1,0.3,1.3,0.3,1.3h46.5c5.1,0,9.9-2.3,12.9-6.3c0.7-1.1,2.7-4.9,2.7-4.9l5.3-11.9
		C96,124.9,95.2,124.7,95.2,124.7z"/>
</g>
<path class="st2" d="M960.6,153.7H711.2c-6.6,0-12-5.4-12-12V63.2c0-6.6,5.4-12,12-12h249.4c6.6,0,12,5.4,12,12v78.5
	C972.6,148.3,967.2,153.7,960.6,153.7z"/>
<g>
	<path class="st1" d="M121.4,84.7H74.6c-0.5,0-1.1,0.1-1.5,0.1c-0.6,0.1-1.4,0.2-2,0.3c-0.1,0-0.2,0.1-0.3,0.1
		c-4.7,1.3-8.6,4.6-10.7,9.1l-6,13.4c-0.4,1.1,0.3,1.3,0.3,1.3h46.5c5.1,0,9.9-2.3,12.9-6.3c0.7-1.1,2.7-4.9,2.7-4.9l5.3-11.9
		C122.2,84.8,121.4,84.7,121.4,84.7z"/>
</g>
<path class="st0" d="M110.2,43.9l-1-2.2c-2.7-8.2-7.4-15-13.8-19.6c-6-4.3-13-6.6-20.2-6.6S60.9,17.8,55,22.1
	c-6.4,4.6-11.2,11.4-13.8,19.6l-0.7,2.2h5.4l0,0.1H53l0.3-1c3.7-9.7,12.1-15.7,21.8-15.7c9.7,0,18,6.1,21.8,15.7l0.3,1h7.3l0-0.1
	H110.2z"/>
<text transform="matrix(1 0 0 1 741.5527 125.6695)" class="st3 st4 st5">DOCS</text>
</svg>
