<?xml version="1.0" encoding="utf-8"?>
<!-- Generator: Adobe Illustrator 21.1.0, SVG Export Plug-In . SVG Version: 6.00 Build 0)  -->
<svg version="1.1" id="Layer_1" xmlns="http://www.w3.org/2000/svg" xmlns:xlink="http://www.w3.org/1999/xlink" x="0px" y="0px"
	 viewBox="0 0 1009.7 191" style="enable-background:new 0 0 1009.7 191;" xml:space="preserve">
<style type="text/css">
	.st0{fill:#FFFFFF;}
	.st1{fill:#4419A3;}
	.st2{fill:#C2B8FF;}
</style>
<g>
	<path class="st0" d="M174.1,134.1l12.9-12.3c6.5,6.5,15.2,9.6,22.7,9.6c9.9,0,15.1-4.9,15.1-9.6c0-3.1-2.8-4-12.5-6.5
		c-15.3-3.8-26-7.3-26-20.9c0-16.2,14.1-28.5,35.3-28.5c11.4,0,22.5,3.9,30,11.3l-12,13.2c-6.3-5.6-14.2-8-19.9-8
		c-8.5,0-13.4,4.9-13.4,9.5c0,3.3,3.2,4.4,12.8,6.7c17.9,4.1,25.8,8.7,25.8,20.7c0,17.2-15.9,28.6-36.6,28.6
		C194.8,147.8,182,142.5,174.1,134.1L174.1,134.1z M314.3,103.8c0,4.4-1,7.3-8.3,42.6h-18.7c7.1-33.8,7.5-35.5,7.5-37.6
		c0-4.5-2.7-7.1-7-7.1c-6.4,0-12.1,4.7-13.7,10.1l-7.1,34.5h-19.5l16.7-80.5h19.5l-5.5,26.5c4.4-4.4,10.7-6.9,17.4-6.9
		C307.2,85.4,314.3,93,314.3,103.8z M316.9,121.2c0-19.6,17.5-35.7,38.9-35.7c16.5,0,28.3,11.1,28.3,26.5c0,19.6-17.5,35.8-39,35.8
		C328.7,147.8,316.9,136.7,316.9,121.2z M365.5,112.4c0-6.1-4.6-10.7-10.7-10.7c-10.6,0-19.2,8.6-19.2,19c0,6.3,4.5,10.8,10.7,10.8
		C356.8,131.5,365.5,122.9,365.5,112.4z M455,109.6c0,20-14.2,38.2-33.5,38.2c-8.3,0-14.8-3.9-18.5-10.4l-6,28.8h-19.5L394,86.8
		h19.5l-1.5,7c5.5-5.2,12.4-8.4,20.2-8.4C445.9,85.4,455,95.5,455,109.6z M436.2,111.8c0-6-4.3-10.1-10.7-10.1
		c-10.3,0-18.8,9.9-18.8,20c0,5.8,4.1,9.9,10.3,9.9C427.3,131.5,436.2,121.9,436.2,111.8z M461.9,67.4h20.9l1.6,49.4l27-49.4h21.3
		l6,49.4l22.6-49.4h21.6l-39.4,79.2h-19.9l-6.9-50.2l-28.4,50.2h-20L461.9,67.4z M584.4,67.4h36.2c15.2,0,25.4,9.2,25.4,22.7
		c0,18.2-15.8,31.7-35.5,31.7H593l-5.3,24.8H568L584.4,67.4z M611.5,103.8c7.3,0,14.5-6.1,14.5-12.2c0-3.8-3.6-6.3-9.4-6.3h-16.2
		l-3.8,18.5H611.5z"/>
</g>
<g>
	<g>
		<path class="st1" d="M715,128.1c0,14.4,11.6,26,26,26h242c14.4,0,26-11.6,26-26v-56c0-14.4-11.6-26-26-26H741
			c-14.4,0-26,11.6-26,26V128.1z"/>
	</g>
</g>
<g>
	<path class="st0" d="M126.8,58.5H24c-11.2,1-12.8,8.9-13,12.2v104.5h128.6v-106C139,65.5,136.4,59.3,126.8,58.5z M95.5,126
		l-5.3,11.9c0,0-1.9,3.8-2.7,4.9c-3,3.9-7.8,6.3-12.9,6.3H28.3c0,0-0.7-0.2-0.3-1.3l6-13.4c2.1-4.6,6.1-7.9,10.7-9.1
		c0.1,0,0.2-0.1,0.3-0.1c0.6-0.1,1.4-0.2,2-0.3c0.4,0,1-0.1,1.5-0.1h46.8C95.2,124.7,96,124.9,95.5,126z M121.7,86l-5.3,11.9
		c0,0-1.9,3.8-2.7,4.9c-3,3.9-7.8,6.3-12.9,6.3H54.4c0,0-0.7-0.2-0.3-1.3l6-13.4c2.1-4.6,6.1-7.9,10.7-9.1c0.1,0,0.2-0.1,0.3-0.1
		c0.6-0.1,1.4-0.2,2-0.3c0.4,0,1-0.1,1.5-0.1h46.8C121.4,84.7,122.2,84.8,121.7,86z"/>
</g>
<g>
	<path class="st0" d="M110.2,43.9l-1-2.2c-2.7-8.2-7.4-15-13.8-19.6c-6-4.3-13-6.6-20.2-6.6S60.9,17.8,55,22.1
		c-6.4,4.6-11.2,11.4-13.8,19.6l-0.7,2.2h5.4V44H53l0.3-1c3.7-9.7,12.1-15.7,21.8-15.7s18,6.1,21.8,15.7l0.3,1h7.3v-0.1H110.2z"/>
</g>
<g>
	<path class="st2" d="M767.1,76.5h17.7c16.5,0,28.2,10,28.2,24.1s-11.7,24.2-28.2,24.2h-17.7V76.5z M786.6,113.9
		c8.3,0,14.1-5.6,14.1-13.3s-5.8-13.2-14.1-13.2h-7.4v26.5H786.6z"/>
	<path class="st2" d="M817.3,100.6c0-13.6,11.9-24.9,26-24.9s25.9,11.4,25.9,24.9c0,13.6-11.9,25-25.9,25
		C829.2,125.7,817.3,114.2,817.3,100.6z M856.9,100.6c0-7.6-6.3-14.1-13.6-14.1c-7.4,0-13.6,6.5-13.6,14.1c0,7.7,6.3,14.1,13.6,14.1
		C850.6,114.8,856.9,108.3,856.9,100.6z"/>
	<path class="st2" d="M873.4,100.6c0-13.6,11.9-24.9,26-24.9c7.5,0,14.3,3.2,19.1,8.3l-8.8,7.8c-2.5-3.2-6.3-5.2-10.3-5.2
		c-7.4,0-13.6,6.5-13.6,14.1c0,7.7,6.3,14.1,13.6,14.1c4.1,0,7.9-2,10.4-5.2l8.7,7.7c-4.8,5.1-11.6,8.4-19.1,8.4
		C885.3,125.7,873.4,114.2,873.4,100.6z"/>
	<path class="st2" d="M921.2,117.6l6.7-8.1c4.7,3.9,10,6.1,15.9,6.1c4.5,0,6.8-1.8,6.8-4.4c0-2.9-2.2-3.5-9.3-5.2
		c-10.3-2.3-18-5.1-18-14.8c0-9.3,7.4-15.5,18.5-15.5c8.1,0,14.4,2.3,19.5,6.6l-6.1,8.6c-4.4-3.4-9.3-5.1-13.8-5.1
		c-3.9,0-6,1.8-6,4.2c0,3,2.3,3.9,9.5,5.5c10.8,2.3,17.8,5.4,17.8,14.5c0,9.7-7.4,15.7-19.3,15.7C934.8,125.7,927,122.8,921.2,117.6
		z"/>
</g>
</svg>
