<?xml version="1.0" encoding="utf-8"?>
<!-- Generator: Adobe Illustrator 21.1.0, SVG Export Plug-In . SVG Version: 6.00 Build 0)  -->
<svg version="1.1" id="Layer_1" xmlns="http://www.w3.org/2000/svg" xmlns:xlink="http://www.w3.org/1999/xlink" x="0px" y="0px"
	 viewBox="0 0 1111.6 191" style="enable-background:new 0 0 1111.6 191;" xml:space="preserve">
<style type="text/css">
	.st0{fill:#415AFF;}
	.st1{fill:#FFFFFF;}
</style>
<g>
	<g>
		<path class="st0" d="M796.2,123.1c0,14.4,11.6,26,26,26h242c14.4,0,26-11.6,26-26v-56c0-14.4-11.6-26-26-26h-242
			c-14.4,0-26,11.6-26,26L796.2,123.1L796.2,123.1z"/>
	</g>
</g>
<g>
	<path class="st1" d="M848.2,71.5h17.7c16.5,0,28.2,10,28.2,24.1s-11.7,24.2-28.2,24.2h-17.7V71.5z M867.8,108.9
		c8.3,0,14.1-5.6,14.1-13.3s-5.8-13.2-14.1-13.2h-7.4v26.5H867.8z"/>
	<path class="st1" d="M898.4,95.6c0-13.6,11.9-24.9,26-24.9s25.9,11.4,25.9,24.9c0,13.6-11.9,25-25.9,25
		C910.3,120.7,898.4,109.2,898.4,95.6z M938.1,95.6c0-7.6-6.3-14.1-13.6-14.1c-7.4,0-13.6,6.5-13.6,14.1c0,7.7,6.3,14.1,13.6,14.1
		C931.8,109.8,938.1,103.3,938.1,95.6z"/>
	<path class="st1" d="M954.6,95.6c0-13.6,11.9-24.9,26-24.9c7.5,0,14.3,3.2,19.1,8.3l-8.8,7.8c-2.5-3.2-6.3-5.2-10.3-5.2
		c-7.4,0-13.6,6.5-13.6,14.1c0,7.7,6.3,14.1,13.6,14.1c4.1,0,7.9-2,10.4-5.2l8.7,7.7c-4.8,5.1-11.6,8.4-19.1,8.4
		C966.4,120.7,954.6,109.2,954.6,95.6z"/>
	<path class="st1" d="M1002.3,112.6l6.7-8.1c4.7,3.9,10,6.1,15.9,6.1c4.5,0,6.8-1.8,6.8-4.4c0-2.9-2.2-3.5-9.3-5.2
		c-10.3-2.3-18-5.1-18-14.8c0-9.3,7.4-15.5,18.5-15.5c8.1,0,14.4,2.3,19.5,6.6l-6.1,8.6c-4.4-3.4-9.3-5.1-13.8-5.1
		c-3.9,0-6,1.8-6,4.2c0,3,2.3,3.9,9.5,5.5c10.8,2.3,17.8,5.4,17.8,14.5c0,9.7-7.4,15.7-19.3,15.7
		C1015.9,120.7,1008.2,117.8,1002.3,112.6z"/>
</g>
<g>
	<circle class="st0" cx="93.6" cy="95.4" r="88.7"/>
	<path class="st1" d="M80,54.8c2.7-6.8,8.6-11.5,15.4-11.5c6.8,0,12.6,4.7,15.4,11.5h7.2c-3.1-11.3-12-19.4-22.5-19.4
		c-10.5,0-19.4,8.2-22.5,19.4H80z"/>
	<path class="st1" d="M140.4,65.9c-30.6,0-61.2,0-91.8,0c-1.9,21.4-3.6,42.8-4.9,64.2c0.3,2.7,2.1,7.4,9.8,8c13.4,0,26.8,0,40.2,0
		c0.5,0,0.9,0,1.4,0c13.4,0,26.8,0,40.2,0c7.7-0.6,9.5-5.2,9.8-8C144,108.6,142.3,87.3,140.4,65.9z M122,103.9
		c-2.1,6.6-5.9,12.1-11.2,15.8c-4.8,3.5-10.6,5.3-16.4,5.3c-0.1,0-0.1,0-0.2,0l0,0c-5.7-0.1-11.4-1.9-16-5.3
		c-5.2-3.8-9-9.2-11.2-15.8l-0.6-1.9h12l0.3,0.7c2.8,6.9,8.9,11.3,15.9,11.3c0.1,0,0.2,0,0.3,0l0,0c6.9-0.1,12.9-4.4,15.6-11.3
		l0.3-0.7h12L122,103.9z"/>
</g>
<path d="M245.1,130.6c-9.9,0-21-3.3-30.4-10.7l8.6-13.2c7.7,5.6,15.7,8.5,22.4,8.5c5.8,0,8.5-2.1,8.5-5.3v-0.3
	c0-4.4-6.9-5.8-14.7-8.2c-9.9-2.9-21.2-7.5-21.2-21.3v-0.3c0-14.4,11.6-22.5,25.9-22.5c9,0,18.8,3,26.5,8.2L263,79.5
	c-7-4.1-14-6.6-19.2-6.6c-4.9,0-7.4,2.1-7.4,4.9V78c0,4,6.7,5.8,14.4,8.5c9.9,3.3,21.4,8.1,21.4,21v0.3
	C272.2,123.5,260.5,130.6,245.1,130.6z"/>
<path d="M331.5,129.3V89.8c0-9.5-4.5-14.4-12.2-14.4c-7.7,0-12.6,4.9-12.6,14.4v39.5h-20.1V32.8h20.1v35.7
	c4.6-6,10.6-11.4,20.8-11.4c15.2,0,24.1,10.1,24.1,26.3v45.9H331.5z"/>
<path d="M403.8,130.9c-22,0-38.2-16.3-38.2-36.6V94c0-20.4,16.4-36.9,38.5-36.9c22,0,38.2,16.3,38.2,36.6V94
	C442.3,114.4,425.9,130.9,403.8,130.9z M422.5,94c0-10.4-7.5-19.6-18.6-19.6c-11.5,0-18.4,8.9-18.4,19.3V94
	c0,10.4,7.5,19.6,18.6,19.6c11.5,0,18.4-8.9,18.4-19.3V94z"/>
<path d="M499.1,130.6c-10.7,0-17.3-4.9-22.1-10.6v30.4h-20.1V58.4H477v10.2c4.9-6.6,11.6-11.5,22.1-11.5c16.5,0,32.3,13,32.3,36.6
	V94C531.3,117.7,515.9,130.6,499.1,130.6z M511.2,93.7c0-11.8-7.9-19.6-17.3-19.6c-9.4,0-17.2,7.8-17.2,19.6V94
	c0,11.8,7.8,19.6,17.2,19.6c9.4,0,17.3-7.7,17.3-19.6V93.7z"/>
<path d="M617.5,129.9H612l-20.1-57.8l-20.2,57.8h-5.6l-24.7-68h7.3l20.4,59.3l20.4-59.5h5.2l20.4,59.5l20.4-59.3h7L617.5,129.9z"/>
<path d="M689.3,130.9c-13.5,0-22.2-7.7-27.8-16.1v35.7H655V61.9h6.5v15.1c5.8-8.9,14.4-16.7,27.8-16.7c16.3,0,32.8,13.1,32.8,35v0.3
	C722.1,117.6,705.5,130.9,689.3,130.9z M715.1,95.6c0-17.7-12.3-29.1-26.5-29.1c-14,0-27.5,11.8-27.5,29v0.3c0,17.3,13.5,29,27.5,29
	c14.7,0,26.5-10.7,26.5-28.8V95.6z"/>
</svg>
