<?xml version="1.0" encoding="utf-8"?>
<!-- Generator: Adobe Illustrator 21.1.0, SVG Export Plug-In . SVG Version: 6.00 Build 0)  -->
<svg version="1.1" id="Layer_1" xmlns="http://www.w3.org/2000/svg" xmlns:xlink="http://www.w3.org/1999/xlink" x="0px" y="0px"
	 viewBox="0 0 1009.7 191" style="enable-background:new 0 0 1009.7 191;" xml:space="preserve">
<style type="text/css">
	.st0{fill:#415AFF;}
	.st1{fill:#FFFFFF;}
	.st2{fill:#7DF9ED;}
	.st3{fill:#0E7C71;}
</style>
<path d="M173.5,134.1l12.9-12.3c6.5,6.5,15.2,9.6,22.7,9.6c9.9,0,15.1-4.9,15.1-9.6c0-3.1-2.8-4-12.5-6.5c-15.3-3.8-26-7.3-26-20.9
	c0-16.2,14.1-28.5,35.3-28.5c11.4,0,22.5,3.9,30,11.3l-12,13.2c-6.3-5.6-14.2-8-19.9-8c-8.5,0-13.4,4.9-13.4,9.5
	c0,3.3,3.2,4.4,12.8,6.7c17.9,4.1,25.8,8.7,25.8,20.7c0,17.2-15.9,28.6-36.6,28.6C194.2,147.8,181.4,142.5,173.5,134.1L173.5,134.1z
	 M313.6,103.8c0,4.4-1,7.3-8.3,42.6h-18.7c7.1-33.8,7.5-35.5,7.5-37.6c0-4.5-2.7-7.1-7-7.1c-6.4,0-12.1,4.7-13.7,10.1l-7.1,34.5
	h-19.5l16.7-80.5H283l-5.5,26.5c4.4-4.4,10.7-6.9,17.4-6.9C306.6,85.4,313.6,93,313.6,103.8z M316.2,121.2
	c0-19.6,17.5-35.7,38.9-35.7c16.5,0,28.3,11.1,28.3,26.5c0,19.6-17.5,35.8-39,35.8C328.1,147.8,316.2,136.7,316.2,121.2z
	 M364.9,112.4c0-6.1-4.6-10.7-10.7-10.7c-10.6,0-19.2,8.6-19.2,19c0,6.3,4.5,10.8,10.7,10.8C356.1,131.5,364.9,122.9,364.9,112.4z
	 M454.4,109.6c0,20-14.2,38.2-33.5,38.2c-8.3,0-14.8-3.9-18.5-10.4l-6,28.8h-19.5l16.5-79.4h19.5l-1.5,7c5.5-5.2,12.4-8.4,20.2-8.4
	C445.2,85.4,454.4,95.5,454.4,109.6z M435.6,111.8c0-6-4.3-10.1-10.7-10.1c-10.3,0-18.8,9.9-18.8,20c0,5.8,4.1,9.9,10.3,9.9
	C426.6,131.5,435.6,121.9,435.6,111.8z M461.2,67.4h20.9l1.6,49.4l27-49.4H532l6,49.4l22.6-49.4h21.6l-39.4,79.2h-19.9L516,96.4
	l-28.4,50.2h-20L461.2,67.4z M583.8,67.4H620c15.2,0,25.4,9.2,25.4,22.7c0,18.2-15.8,31.7-35.5,31.7h-17.5l-5.3,24.8h-19.7
	L583.8,67.4z M610.8,103.8c7.3,0,14.5-6.1,14.5-12.2c0-3.8-3.6-6.3-9.4-6.3h-16.2l-3.8,18.5H610.8z"/>
<path class="st0" d="M126.2,58.5H23.4c-11.2,1-12.8,8.9-13,12.2v104.5H139v-106C138.4,65.5,135.8,59.3,126.2,58.5z"/>
<g>
	<path class="st1" d="M94.5,124.7H47.8c-0.5,0-1.1,0.1-1.5,0.1c-0.6,0.1-1.4,0.2-2,0.3c-0.1,0-0.2,0.1-0.3,0.1
		c-4.7,1.3-8.6,4.6-10.7,9.1l-6,13.4c-0.4,1.1,0.3,1.3,0.3,1.3h46.5c5.1,0,9.9-2.3,12.9-6.3c0.7-1.1,2.7-4.9,2.7-4.9l5.3-11.9
		C95.3,124.9,94.5,124.7,94.5,124.7z"/>
</g>
<g>
	<path class="st1" d="M120.8,84.7H73.9c-0.5,0-1.1,0.1-1.5,0.1c-0.6,0.1-1.4,0.2-2,0.3c-0.1,0-0.2,0.1-0.3,0.1
		c-4.7,1.3-8.6,4.6-10.7,9.1l-6,13.4c-0.4,1.1,0.3,1.3,0.3,1.3h46.5c5.1,0,9.9-2.3,12.9-6.3c0.7-1.1,2.7-4.9,2.7-4.9l5.3-11.9
		C121.5,84.8,120.8,84.7,120.8,84.7z"/>
</g>
<path class="st0" d="M109.5,43.9l-1-2.2c-2.7-8.2-7.4-15-13.8-19.6c-6-4.3-13-6.6-20.2-6.6s-14.3,2.3-20.2,6.6
	c-6.4,4.6-11.2,11.4-13.8,19.6l-0.7,2.2h5.4V44h7.1l0.3-1c3.7-9.7,12.1-15.7,21.8-15.7s18,6.1,21.8,15.7l0.3,1h7.3v-0.1H109.5z"/>
<g>
	<path class="st2" d="M988.7,154.7H733.2c-9.9,0-18-8.1-18-18V63.4c0-9.9,8.1-18,18-18h255.5c9.9,0,18,8.1,18,18v73.3
		C1006.7,146.6,998.6,154.7,988.7,154.7z"/>
</g>
<g>
	<path class="st3" d="M765.1,76.5h17.7c16.5,0,28.2,10,28.2,24.1s-11.7,24.2-28.2,24.2h-17.7V76.5z M784.6,113.9
		c8.3,0,14.1-5.6,14.1-13.3s-5.8-13.2-14.1-13.2h-7.4v26.5H784.6z"/>
	<path class="st3" d="M815.3,100.6c0-13.6,11.9-24.9,26-24.9s25.9,11.4,25.9,24.9c0,13.6-11.9,25-25.9,25
		C827.2,125.7,815.3,114.2,815.3,100.6z M854.9,100.6c0-7.6-6.3-14.1-13.6-14.1c-7.4,0-13.6,6.5-13.6,14.1c0,7.7,6.3,14.1,13.6,14.1
		C848.6,114.8,854.9,108.3,854.9,100.6z"/>
	<path class="st3" d="M871.4,100.6c0-13.6,11.9-24.9,26-24.9c7.5,0,14.3,3.2,19.1,8.3l-8.8,7.8c-2.5-3.2-6.3-5.2-10.3-5.2
		c-7.4,0-13.6,6.5-13.6,14.1c0,7.7,6.3,14.1,13.6,14.1c4.1,0,7.9-2,10.4-5.2l8.7,7.7c-4.8,5.1-11.6,8.4-19.1,8.4
		C883.3,125.7,871.4,114.2,871.4,100.6z"/>
	<path class="st3" d="M919.2,117.6l6.7-8.1c4.7,3.9,10,6.1,15.9,6.1c4.5,0,6.8-1.8,6.8-4.4c0-2.9-2.2-3.5-9.3-5.2
		c-10.3-2.3-18-5.1-18-14.8c0-9.3,7.4-15.5,18.5-15.5c8.1,0,14.4,2.3,19.5,6.6l-6.1,8.6c-4.4-3.4-9.3-5.1-13.8-5.1
		c-3.9,0-6,1.8-6,4.2c0,3,2.3,3.9,9.5,5.5c10.8,2.3,17.8,5.4,17.8,14.5c0,9.7-7.4,15.7-19.3,15.7C932.8,125.7,925,122.8,919.2,117.6
		z"/>
</g>
</svg>
